<?xml version="1.0" encoding="UTF-8"?>
<svg width="1000px" height="500px" viewBox="0 0 1000 500" version="1.1" xmlns="http://www.w3.org/2000/svg" xmlns:xlink="http://www.w3.org/1999/xlink">
    <title>logos_NRG-black</title>
    <g id="Logos-1000x500" stroke="none" stroke-width="1" fill="none" fill-rule="evenodd">
        <g id="Logo" fill="#000000" fill-rule="nonzero">
            <g id="Group" transform="translate(226.000000, 149.000000)">
                <path d="M343.711603,42.5248117 L335.268311,42.5248117 L318.560232,19.2797722 L318.560232,42.5248117 L308.496114,42.5248117 L308.496114,2.7042408 L318.199652,2.7042408 L333.47255,24.6882538 L333.47255,2.7042408 L343.533098,2.7042408 L343.533098,42.5248117 L343.711603,42.5248117 Z M365.453527,42.5248117 L365.453527,41.0851696 C364.553861,41.9853924 361.501423,43.0678032 358.445416,43.0678032 C352.697551,43.0678032 347.845782,39.8241432 347.845782,33.6976267 C347.845782,28.1105295 352.697551,24.5060659 358.984501,24.5060659 C361.319348,24.5060659 364.196851,25.227673 365.453527,26.1278959 L365.453527,24.3274502 C365.453527,22.5234322 364.375356,20.9016022 361.858434,20.9016022 C360.062672,20.9016022 358.805996,21.8053974 358.445416,23.0664238 L348.923953,23.0664238 C349.823619,17.4793266 354.671818,12.9746401 362.219014,12.9746401 C370.483801,12.9746401 375.157065,17.2971386 375.157065,25.0490574 L375.157065,42.8856153 L365.453527,42.8856153 L365.453527,42.528384 L365.453527,42.5248117 Z M365.453527,32.7974039 C364.735936,31.5328051 363.11868,30.8147703 361.140843,30.8147703 C359.166577,30.8147703 357.18874,31.7149931 357.18874,33.5154388 C357.18874,35.4980724 359.166577,36.3982952 361.140843,36.3982952 C362.936605,36.3982952 364.735936,35.6802603 365.453527,34.4192339 L365.453527,32.7938316 L365.453527,32.7974039 Z M382.340111,21.2624058 L378.030997,21.2624058 L378.030997,13.5140593 L382.343681,13.5140593 L382.343681,5.40490928 L392.404229,5.40490928 L392.404229,13.5140593 L398.512675,13.5140593 L398.512675,21.4445938 L392.404229,21.4445938 L392.404229,31.1755739 C392.404229,33.5154388 393.4824,34.4192339 395.460237,34.4192339 C396.538408,34.4192339 397.795084,34.2406183 398.69118,33.6976267 L398.69118,42.346196 C397.613009,42.8856153 395.278162,43.2464188 393.12182,43.2464188 C386.295784,43.2464188 382.340111,40.0027588 382.340111,32.6152159 L382.340111,21.2624058 Z M408.394718,10.9920065 C405.34228,10.9920065 402.646853,8.83075726 402.646853,5.58709723 C402.646853,2.16124925 405.34228,0 408.394718,0 C411.450725,0 414.142583,2.16124925 414.142583,5.58709723 C414.142583,8.83075726 411.450725,10.9920065 408.394718,10.9920065 Z M413.428562,42.5248117 L403.182368,42.5248117 L403.182368,13.5176317 L413.428562,13.5176317 L413.428562,42.5248117 Z M432.292983,43.2464188 C423.489111,43.2464188 417.377095,36.9412867 417.377095,27.9319138 C417.377095,18.9189686 423.489111,12.6138365 432.292983,12.6138365 C441.096855,12.6138365 447.2053,18.9189686 447.2053,27.9319138 C447.2053,36.9412867 441.096855,43.2464188 432.292983,43.2464188 L432.292983,43.2464188 Z M432.292983,21.0837902 C429.236975,21.0837902 427.437644,23.9666466 427.437644,27.9319138 C427.437644,31.8971811 429.236975,34.7764652 432.292983,34.7764652 C435.523926,34.7764652 437.141182,32.0757967 437.141182,27.9319138 C437.141182,23.788031 435.34542,21.0837902 432.292983,21.0837902 L432.292983,21.0837902 Z M450.978899,13.5140593 L461.217952,13.5140593 L461.217952,16.0361122 C462.835209,14.2356665 465.709141,12.7924522 469.125729,12.7924522 C475.591184,12.7924522 479.364782,16.936335 479.364782,23.4272274 L479.364782,42.5248117 L469.304234,42.5248117 L469.304234,25.7706646 C469.304234,23.4272274 468.047558,21.6267817 465.530636,21.6267817 C463.552799,21.6267817 461.757038,22.7056202 461.400027,24.8668695 L461.400027,42.5248117 L450.975329,42.5248117 L450.975329,13.5176317 L450.978899,13.5140593 Z M500.746125,42.5248117 L500.746125,41.0851696 C499.84646,41.9853924 496.794022,43.0678032 493.738014,43.0678032 C487.99015,43.0678032 483.138381,39.8241432 483.138381,33.6976267 C483.138381,28.1105295 487.99015,24.5060659 494.2771,24.5060659 C496.615517,24.5060659 499.489449,25.227673 500.746125,26.1278959 L500.746125,24.3274502 C500.746125,22.5234322 499.667954,20.9016022 497.154602,20.9016022 C495.355271,20.9016022 494.098595,21.8053974 493.738014,23.0664238 L484.216551,23.0664238 C485.116217,17.4793266 489.964416,12.9746401 497.511613,12.9746401 C505.7764,12.9746401 510.449664,17.2971386 510.449664,25.0490574 L510.449664,42.8856153 L500.746125,42.8856153 L500.746125,42.528384 L500.746125,42.5248117 Z M500.746125,32.7974039 C500.028535,31.5328051 498.411278,30.8147703 496.433442,30.8147703 C494.459175,30.8147703 492.481338,31.7149931 492.481338,33.5154388 C492.481338,35.4980724 494.459175,36.3982952 496.433442,36.3982952 C498.229203,36.3982952 500.028535,35.6802603 500.746125,34.4192339 L500.746125,32.7938316 L500.746125,32.7974039 Z M524.462315,42.5248117 L514.223262,42.5248117 L514.223262,0.539419234 L524.462315,0.539419234 L524.462315,42.5248117 Z M318.917243,83.070562 L318.917243,96.2238178 L308.678189,96.2238178 L308.678189,56.3996746 L326.464439,56.3996746 C335.089806,56.3996746 340.837671,61.2651646 340.837671,69.9173063 C340.837671,75.8616348 337.785234,80.1877056 332.933464,81.9917236 L342.276422,96.2238178 L330.777123,96.2238178 L322.512336,83.070562 L318.917243,83.070562 L318.917243,83.070562 Z M318.917243,74.7827963 L325.386268,74.7827963 C329.159866,74.7827963 330.777123,72.9787783 330.777123,69.9173063 C330.777123,66.8522619 329.159866,65.0518162 325.386268,65.0518162 L318.917243,65.0518162 L318.917243,74.7827963 L318.917243,74.7827963 Z M372.101057,85.9534185 C371.022886,92.6193542 365.992612,96.7668093 358.445416,96.7668093 C349.463038,96.7668093 343.711603,90.6402929 343.711603,81.448732 C343.711603,72.4393591 350.002124,66.1306547 358.266911,66.1306547 C367.249288,66.1306547 372.279562,72.0785555 372.279562,80.7271248 L372.279562,83.2491777 L353.415142,83.2491777 C353.772152,86.6750256 355.571483,88.6576593 358.448986,88.6576593 C360.601758,88.6576593 362.219014,87.7538641 362.7581,85.7748028 L372.101057,85.9534185 L372.101057,85.9534185 Z M353.593647,78.3836876 L362.397519,78.3836876 C362.219014,76.0438227 360.780263,74.2398048 358.266911,74.2398048 C355.749989,74.2398048 354.132732,75.6830191 353.593647,78.3836876 Z M384.500023,87.2144449 C385.035538,88.8362749 386.295784,89.7364977 388.270051,89.7364977 C389.887307,89.7364977 391.326058,89.0184628 391.326058,87.7538641 C391.326058,86.6750256 390.426393,86.314222 388.991212,85.9534185 L383.243347,84.8710077 C378.388008,83.7921692 375.157065,81.448732 375.157065,76.4046263 C375.157065,70.0959219 380.726425,66.4914583 387.55246,66.4914583 C395.460237,66.4914583 399.769351,70.2781099 400.669016,76.0438227 L391.326058,76.0438227 C390.969048,74.7827963 390.069382,73.7003855 387.734536,73.7003855 C386.295784,73.7003855 385.039108,74.4219927 385.039108,75.6830191 C385.039108,76.583242 385.753129,77.1226612 387.013375,77.3048491 L392.76124,78.7444912 C398.152094,80.0055176 400.847521,82.7097584 400.847521,87.5752485 C400.847521,93.8839529 395.278162,97.3062286 388.091546,97.3062286 C380.726425,97.3062286 375.33557,93.8839529 374.435904,87.5752485 L384.500023,87.5752485 L384.500023,87.2180172 L384.500023,87.2144449 Z M432.110908,85.9534185 C431.032737,92.6193542 426.006033,96.7668093 418.455266,96.7668093 C409.472889,96.7668093 403.725024,90.6402929 403.725024,81.448732 C403.725024,72.4393591 410.011974,66.1306547 418.276761,66.1306547 C427.259139,66.1306547 432.292983,72.0785555 432.292983,80.7271248 L432.292983,83.2491777 L413.424992,83.2491777 C413.782002,86.6750256 415.581334,88.6576593 418.458836,88.6576593 C420.611608,88.6576593 422.228864,87.7538641 422.76795,85.7748028 L432.110908,85.9534185 L432.110908,85.9534185 Z M413.607067,78.3836876 L422.41094,78.3836876 C422.232435,76.0438227 420.793683,74.2398048 418.276761,74.2398048 C415.941914,74.2398048 414.324658,75.6830191 413.607067,78.3836876 L413.607067,78.3836876 Z M452.41408,96.2238178 L452.41408,94.7841757 C451.517984,95.6843985 448.461976,96.7668093 445.405969,96.7668093 C439.658104,96.7668093 434.806335,93.5231493 434.806335,87.3966328 C434.806335,81.8095356 439.658104,78.205072 445.945054,78.205072 C448.283471,78.205072 451.157404,78.9266792 452.41408,79.826902 L452.41408,78.0264563 C452.41408,76.2224384 451.335909,74.6006084 448.822557,74.6006084 C447.023225,74.6006084 445.766549,75.5008312 445.405969,76.7618576 L435.884506,76.7618576 C436.784172,71.1783327 441.632371,66.6736462 449.179567,66.6736462 C457.444354,66.6736462 462.117618,70.9961447 462.117618,78.7480635 L462.117618,96.5846214 L452.41408,96.5846214 L452.41408,96.2273901 L452.41408,96.2238178 Z M452.41408,86.314222 C451.696489,85.0531956 450.079233,84.3315884 448.101396,84.3315884 C446.12713,84.3315884 444.149293,85.2318113 444.149293,87.0358292 C444.149293,89.0184628 446.12713,89.9186857 448.101396,89.9186857 C449.900728,89.9186857 451.696489,89.1970785 452.41408,87.9360521 L452.41408,86.314222 Z M485.473227,76.583242 C484.216551,75.8616348 482.959875,75.6830191 481.342619,75.6830191 C478.647192,75.6830191 476.669355,76.9440456 476.13027,78.9266792 L476.13027,96.0452021 L465.891216,96.0452021 L465.891216,67.0344498 L476.13027,67.0344498 L476.13027,69.5565027 C477.569021,67.5738691 479.903868,66.3128426 482.7778,66.3128426 C484.038046,66.3128426 485.116217,66.4914583 485.473227,66.8522619 L485.473227,76.583242 L485.473227,76.583242 Z M502.363382,66.3128426 C510.267588,66.3128426 515.119357,70.9961447 515.840518,77.8442684 L505.958475,77.8442684 C505.77997,76.0438227 504.341218,74.7827963 502.184877,74.7827963 C499.307374,74.7827963 497.511613,77.4834648 497.511613,81.6273476 C497.511613,85.7712305 499.307374,88.2968557 502.184877,88.2968557 C504.341218,88.2968557 505.597894,87.0358292 505.958475,85.2318113 L515.840518,85.2318113 C514.940852,91.9013193 510.092653,96.7668093 502.363382,96.7668093 C493.559509,96.7668093 487.629569,90.4581049 487.629569,81.448732 C487.629569,72.4393591 493.559509,66.3128426 502.363382,66.3128426 Z M519.610546,54.0598097 L529.85317,54.0598097 L529.85317,69.5565027 C531.470426,67.7524847 534.344359,66.3128426 537.757376,66.3128426 C544.226402,66.3128426 548,70.4567255 548,76.9440456 L548,96.0452021 L537.939452,96.0452021 L537.939452,79.2874828 C537.939452,76.9440456 536.679205,75.1435999 534.165853,75.1435999 C532.188017,75.1435999 530.392255,76.2224384 530.031675,78.3836876 L530.031675,96.0452021 L519.792621,96.0452021 L519.792621,54.0598097 L519.614116,54.0598097 L519.610546,54.0598097 Z M328.085266,138.748629 L328.085266,130.996711 L344.436334,130.996711 L344.436334,134.961978 C344.436334,145.953984 337.249718,152.984296 326.646514,152.984296 C315.150785,152.984296 307.064503,144.514342 307.064503,132.443497 C307.064503,120.36908 315.147215,111.899126 326.646514,111.899126 C336.889138,111.899126 342.819078,117.843455 344.254259,125.952605 L333.654625,125.952605 C332.576454,122.891133 330.420112,121.087115 326.646514,121.087115 C320.898649,121.087115 317.664137,125.952605 317.664137,132.439925 C317.664137,139.288049 321.077155,143.792735 326.828589,143.792735 C330.780693,143.792735 333.294045,141.810102 334.372216,138.748629 L328.085266,138.748629 L328.085266,138.748629 Z M368.152524,132.622113 C366.895848,131.900506 365.635602,131.718318 364.018346,131.718318 C361.322918,131.718318 359.348652,132.982917 358.805996,134.961978 L358.805996,152.080501 L348.566943,152.080501 L348.566943,122.891133 L358.809566,122.891133 L358.809566,125.413186 C360.248318,123.430552 362.583164,122.169526 365.457097,122.169526 C366.713773,122.169526 367.791944,122.348141 368.152524,122.708945 L368.152524,132.622113 L368.152524,132.622113 Z M385.217613,152.80568 C376.417311,152.80568 370.308866,146.496976 370.308866,137.487603 C370.308866,128.474658 376.413741,122.169526 385.221183,122.169526 C394.025056,122.169526 400.133501,128.474658 400.133501,137.487603 C400.133501,146.496976 394.025056,152.802108 385.221183,152.802108 L385.217613,152.80568 Z M385.217613,130.639479 C382.165176,130.639479 380.369414,133.522336 380.369414,137.487603 C380.369414,141.45287 382.165176,144.332154 385.221183,144.332154 C388.455696,144.332154 390.072953,141.631486 390.072953,137.487603 C390.072953,133.522336 388.273621,130.639479 385.217613,130.639479 L385.217613,130.639479 Z M431.935973,152.080501 L421.693349,152.080501 L421.693349,149.558448 C420.076093,151.362466 417.20216,152.802108 413.967648,152.802108 C407.498622,152.802108 403.728594,148.658225 403.728594,142.170905 L403.728594,122.891133 L413.789142,122.891133 L413.789142,139.64528 C413.789142,142.170905 414.867313,143.792735 417.562741,143.792735 C419.358502,143.792735 421.154264,142.531709 421.693349,140.549075 L421.693349,122.891133 L431.935973,122.891133 L431.935973,152.080501 Z M446.309205,162.533088 L436.066581,162.533088 L436.066581,122.894705 L446.312775,122.894705 L446.312775,125.238142 C447.747956,123.616312 450.443383,122.173098 453.495821,122.173098 C461.939113,122.173098 466.433872,129.021222 466.433872,137.491175 C466.433872,145.778941 461.760608,152.80568 453.495821,152.80568 C450.443383,152.80568 447.747956,151.366038 446.309205,149.744208 L446.309205,162.53666 L446.309205,162.533088 Z M446.309205,141.449298 C447.026795,143.071128 448.826127,144.153539 450.800393,144.153539 C454.213411,144.153539 456.369753,141.449298 456.369753,137.666219 C456.369753,133.879567 454.213411,131.000283 450.800393,131.000283 C448.826127,131.000283 447.026795,132.079121 446.309205,133.700951 L446.309205,141.45287 L446.309205,141.449298 Z M139.248272,12.6138365 L10.2390535,12.6138365 L0.360580337,2.7042408 L129.366229,2.7042408 L139.248272,12.6138365 Z M159.012359,32.4366003 L30.1852153,32.4366003 L20.128237,22.5234322 L149.133885,22.5234322 L159.015929,32.4366003 L159.012359,32.4366003 Z M178.95495,52.4379797 L49.9493019,52.4379797 L40.0672586,42.346196 L168.894402,42.346196 L178.95852,52.4379797 L178.95495,52.4379797 Z M198.719037,72.2571712 L69.7133885,72.2571712 L59.8313452,62.3475754 L189.194004,62.3475754 L198.719037,72.2571712 Z M218.483123,92.0835072 L89.29897,92.0835072 L79.7739369,82.1703392 L208.60108,82.1703392 L218.483123,92.0799349 L218.483123,92.0835072 Z M238.425715,112.081314 L109.416497,112.081314 L99.5344534,102.171719 L228.540102,102.171719 L238.422145,112.081314 L238.425715,112.081314 Z M278.132393,151.905458 L149.130315,151.905458 L139.248272,141.813674 L268.25035,141.813674 L278.132393,151.905458 L278.132393,151.905458 Z M258.189802,131.900506 L129.366229,131.900506 L119.30211,121.994482 L248.307758,121.994482 L258.189802,131.904078 L258.189802,131.900506 Z M79.7739369,141.813674 L79.7739369,151.905458 L0.360580337,151.905458 L0.360580337,2.7042408 L10.2390535,12.6102642 L10.2390535,141.810102 L79.7703668,141.810102 L79.7739369,141.813674 Z" id="Shape"></path>
                <polygon id="Path" points="79.7739369 121.994482 79.7739369 131.904078 20.128237 131.904078 20.128237 22.5234322 30.1852153 32.4366003 30.1852153 121.994482"></polygon>
                <polygon id="Path" points="79.7739369 102.168146 79.7739369 112.081314 40.0672586 112.081314 40.0672586 42.346196 49.9493019 52.4379797 49.9493019 102.168146"></polygon>
                <path d="M79.7739369,82.1703392 L79.7739369,92.0799349 L59.8313452,92.0799349 L59.8313452,62.3475754 L69.7133885,72.2571712 L69.7133885,82.1703392 L79.7739369,82.1703392 Z M218.483123,62.3475754 L218.483123,92.0799349 L208.60108,82.1703392 L208.60108,72.2571712 L198.719037,72.2571712 L198.719037,62.3475754 L218.483123,62.3475754 Z" id="Shape"></path>
                <polygon id="Path" points="238.425715 42.346196 238.425715 112.081314 228.543672 102.171719 228.543672 52.4379797 198.719037 52.4379797 198.719037 42.346196"></polygon>
                <polygon id="Path" points="278.132393 2.7042408 278.132393 151.905458 268.25035 141.813674 268.25035 12.6138365 198.719037 12.6138365 198.719037 2.7042408"></polygon>
                <path d="M258.189802,22.5234322 L258.189802,131.904078 L248.307758,121.994482 L248.307758,32.4366003 L198.719037,32.4366003 L198.719037,22.5234322 L258.189802,22.5234322 Z M9.16445273,184.881477 L15.6334782,201.639196 L12.7559757,201.639196 L10.9602142,196.955894 L4.49118875,196.955894 L2.69542727,201.639196 L0,201.639196 L6.46902545,184.881477 L9.16445273,184.881477 Z M5.39085454,194.612457 L9.8820433,194.612457 L7.54719636,188.485941 L5.39085454,194.612457 Z M58.2140889,196.955894 C58.7531743,198.75634 60.1919256,199.477947 61.9876871,199.477947 C63.9655238,199.477947 65.2221998,198.577724 65.2221998,196.955894 C65.2221998,195.694868 64.5046092,195.151876 62.8873528,194.612457 L60.0098504,193.89085 C57.6750034,193.351431 55.8792419,192.090404 55.8792419,189.386163 C55.8792419,186.503307 58.2140889,184.342058 61.6271067,184.342058 C65.2221998,184.342058 67.3749715,186.142503 67.9176271,189.02536 L65.0436947,189.02536 C64.6831143,187.764333 63.6049434,186.864111 61.6271067,186.864111 C59.8313452,186.864111 58.5746692,187.764333 58.5746692,189.207548 C58.5746692,190.286386 59.2922598,191.007993 60.731011,191.368797 L63.6049434,192.090404 C66.3003707,192.629824 67.9176271,194.251654 67.9176271,196.773706 C67.9176271,199.838751 65.4007049,201.821384 61.9876871,201.821384 C58.392594,201.821384 55.8792419,200.017366 55.3401565,196.955894 L58.2140889,196.955894 L58.2140889,196.955894 Z M85.7038769,184.881477 L99.7200988,184.881477 L99.7200988,187.40353 L94.1507391,187.40353 L94.1507391,201.639196 L91.2732366,201.639196 L91.2732366,187.40353 L85.7038769,187.40353 L85.7038769,184.881477 L85.7038769,184.881477 Z M124.87147,184.881477 L131.340495,201.639196 L128.466563,201.639196 L126.670801,196.955894 L120.198206,196.955894 L118.402444,201.639196 L115.524942,201.639196 L121.993967,184.881477 L124.8679,184.881477 L124.87147,184.881477 Z M121.101442,194.612457 L125.771136,194.612457 L123.436289,188.485941 L121.101442,194.612457 L121.101442,194.612457 Z M157.034522,195.334064 L157.034522,192.990627 L163.321472,192.990627 L163.321472,194.251654 C163.321472,198.934956 160.269035,201.821384 156.134856,201.821384 C151.643667,201.821384 148.230649,198.395536 148.230649,193.169243 C148.230649,187.946521 151.643667,184.524246 155.956351,184.524246 C159.729949,184.524246 162.243301,186.681923 162.782387,190.107771 L159.908454,190.107771 C159.190864,188.303753 158.112693,187.224914 155.956351,187.224914 C153.082419,187.224914 151.104582,189.746967 151.104582,193.351431 C151.104582,196.955894 153.082419,199.477947 156.138426,199.477947 C158.651778,199.477947 160.269035,197.856117 160.626045,195.51268 L157.034522,195.334064 L157.034522,195.334064 Z M192.071506,184.881477 L195.306019,197.13451 L198.358457,184.881477 L201.053884,184.881477 L196.7412,201.639196 L194.045773,201.639196 L190.81126,189.743395 L187.576747,201.639196 L185.063395,201.639196 L180.750712,184.881477 L183.446139,184.881477 L186.502147,197.13451 L189.733089,184.881477 L192.071506,184.881477 L192.071506,184.881477 Z M230.521509,184.881477 L230.521509,187.40353 L222.435227,187.40353 L222.435227,191.908216 L229.800348,191.908216 L229.800348,194.430269 L222.435227,194.430269 L222.435227,199.295759 L230.521509,199.295759 L230.521509,201.821384 L219.561294,201.821384 L219.561294,185.060093 L230.521509,184.881477 L230.521509,184.881477 Z M249.925015,184.881477 L252.798947,184.881477 L252.798947,199.117144 L260.885229,199.117144 L260.885229,201.639196 L250.10352,201.639196 L250.10352,184.881477 L249.925015,184.881477 L249.925015,184.881477 Z M279.928155,184.881477 L282.805657,184.881477 L282.805657,199.117144 L290.888369,199.117144 L290.888369,201.639196 L280.10666,201.639196 L280.10666,184.881477 L279.928155,184.881477 Z M339.04191,184.524246 C342.815508,184.524246 345.150355,186.681923 345.867945,190.107771 L343.172518,190.107771 C342.458498,188.303753 341.376757,187.224914 339.220415,187.224914 C336.346482,187.224914 334.550721,189.746967 334.550721,193.351431 C334.550721,196.773706 336.346482,199.477947 339.220415,199.477947 C341.376757,199.477947 342.633433,198.216921 343.172518,196.412903 L345.867945,196.412903 C345.33243,199.838751 342.815508,202 339.04191,202 C334.729226,202 331.494713,198.577724 331.494713,193.351431 C331.494713,188.125137 334.729226,184.520673 339.04191,184.520673 L339.04191,184.524246 Z M371.744047,201.821384 C367.249288,201.821384 364.014776,198.213348 364.014776,193.169243 C364.014776,188.125137 367.249288,184.524246 371.740477,184.524246 C376.235236,184.524246 379.466178,188.125137 379.466178,193.169243 C379.466178,198.216921 376.235236,201.821384 371.740477,201.821384 L371.744047,201.821384 Z M371.744047,187.224914 C368.866545,187.224914 366.888708,189.746967 366.888708,193.351431 C366.888708,196.955894 368.866545,199.477947 371.744047,199.477947 C374.61798,199.477947 376.592246,196.955894 376.592246,193.351431 C376.592246,189.743395 374.61798,187.224914 371.740477,187.224914 L371.744047,187.224914 Z M405.881366,201.639196 L401.208102,189.925583 L401.208102,201.642769 L398.512675,201.642769 L398.512675,184.881477 L401.747187,184.881477 L406.781032,197.673929 L411.807736,184.881477 L415.042248,184.881477 L415.042248,201.639196 L412.346821,201.639196 L412.346821,189.925583 L407.855632,201.642769 L405.881366,201.642769 L405.881366,201.639196 Z M437.862343,195.334064 L437.862343,201.639196 L434.98484,201.639196 L434.98484,184.881477 L441.453866,184.881477 C444.866883,184.881477 447.20173,186.681923 447.20173,190.107771 C447.20173,193.530046 444.866883,195.334064 441.453866,195.334064 L437.865913,195.334064 L437.862343,195.334064 Z M441.453866,187.40353 L437.865913,187.40353 L437.865913,192.990627 L441.457436,192.990627 C443.435272,192.990627 444.513443,191.729601 444.513443,190.286386 C444.513443,188.485941 443.435272,187.40353 441.457436,187.40353 L441.453866,187.40353 Z M472.895757,184.881477 L479.364782,201.639196 L476.49085,201.639196 L474.695089,196.955894 L468.226063,196.955894 L466.426731,201.639196 L463.549229,201.639196 L470.018254,184.881477 L472.892187,184.881477 L472.895757,184.881477 Z M469.125729,194.612457 L473.616918,194.612457 L471.278501,188.485941 L469.125729,194.612457 Z M511.345759,201.639196 L509.189417,201.639196 L500.56762,189.386163 L500.56762,201.639196 L497.872193,201.639196 L497.872193,184.881477 L500.56762,184.881477 L508.650332,196.412903 L508.650332,184.881477 L511.345759,184.881477 L511.345759,201.639196 Z M541.891555,184.881477 L544.943992,184.881477 L538.839117,194.973261 L538.839117,201.639196 L535.961615,201.639196 L535.961615,194.976833 L529.85317,184.885049 L532.909177,184.885049 L537.400366,192.45478 L541.891555,184.885049 L541.891555,184.881477 Z" id="Shape"></path>
            </g>
        </g>
    </g>
</svg>